# xmcd CD database file
#
# Track frame offsets:
#	150
#	15710
#	35270
#
# Disc length: 726 seconds
#
# Revision: 0
# Processed by: cddbd v1.5.1PL0 Copyright (c) Steve Scherf et al.
# Submitted via: CDex 1.51
#
DISCID=1802d403
DTITLE=SOURCE - スバラシキ日々
DYEAR=2005
DGENRE=Rock
TTITLE0=スバラシキ日々
TTITLE1=思い出ヒラリ
TTITLE2=いなせなガール
EXTD=YEAR: 2005/07/13
EXTT0=
EXTT1=
EXTT2=
PLAYORDER=
